<svg id="Layer_1" data-name="Layer 1" xmlns="http://www.w3.org/2000/svg" viewBox="0 0 64 64"><defs><style>.cls-1{fill:#6b21a8;}</style></defs><title>Logo_Artboard 3</title><path class="cls-1" d="M33.61,44.3V43.09q0-18.8,0-37.57c0-1.32.43-1.62,1.53-1.8a1.82,1.82,0,0,1,2.28,1.43,16.71,16.71,0,0,0,4.92,8A55.41,55.41,0,0,1,47.81,19a13.46,13.46,0,0,1,0,15.84,3.9,3.9,0,0,1-.75.78c1.41-5,.95-9.53-2.74-13.38a12.93,12.93,0,0,0-6.9-3.78v1.25q0,15.26,0,30.51a12.22,12.22,0,0,1-8.84,12.13,10.88,10.88,0,0,1-8.49-.26c-3.86-1.89-5.36-6.16-3.8-10.49C18.3,46,26.46,41.13,33,44.11A6,6,0,0,0,33.61,44.3Z"/><path class="cls-1" d="M31.85,20.88V38.54a9.21,9.21,0,0,1,0,1.05,1.3,1.3,0,0,1-1.46,1.2,1.24,1.24,0,0,1-1.31-1.24c0-.56,0-1.12,0-1.68V3c0-.21,0-.42,0-.63A1.28,1.28,0,0,1,30.42,1a1.25,1.25,0,0,1,1.43,1.32c0,.8,0,1.61,0,2.42V20.88Z"/><path class="cls-1" d="M26.77,20.5V30.59c0,1.19-.57,1.92-1.47,1.92s-1.43-.7-1.43-1.94q0-10,0-20.08c0-1.21.46-1.79,1.41-1.8s1.49.57,1.49,1.82Q26.78,15.51,26.77,20.5Z"/><path class="cls-1" d="M21.64,20.44c0,1.93,0,3.85,0,5.78,0,1.11-.59,1.81-1.46,1.8s-1.4-.7-1.4-1.84c0-3.88,0-7.77,0-11.65,0-1.13.56-1.81,1.43-1.79s1.43.67,1.44,1.82c0,2,0,3.92,0,5.88Z"/><path class="cls-1" d="M13.63,20.38c0-.87,0-1.74,0-2.62A1.3,1.3,0,0,1,15,16.34a1.32,1.32,0,0,1,1.54,1.34c.06,1.82.06,3.64,0,5.45A1.4,1.4,0,0,1,15,24.47,1.36,1.36,0,0,1,13.64,23C13.63,22.13,13.64,21.26,13.63,20.38Z"/></svg>