<svg id="Layer_1" data-name="Layer 1" xmlns="http://www.w3.org/2000/svg" viewBox="0 0 192 192"><defs><style>.cls-1{fill:#55229d;}</style></defs><title>Logo_Artboard 2</title><path class="cls-1" d="M95,90.7h7.75l.65,2.67c2.93-10,9.69-16.4,16.78-22.47a2.3,2.3,0,0,0,.92-2.36c-.7-6.13-1.48-12.29-.4-18.46.44-2.56,1.27-5,1.94-7.55a4.21,4.21,0,0,1,.44-1c2.61-4.22,6.1-6.22,9.54-.33s4.18,12.54,2.81,19.38a29.06,29.06,0,0,1-10,17.36,2,2,0,0,0-.73,2.38c.48,2,.83,4.08,1.23,6.1a49.44,49.44,0,0,1,5.66.48,19.44,19.44,0,0,1,5.08,1.68c3.39,1.72,4.83,5.1,4.1,9-.18.92-.41,1.82-.65,2.9,5.67-3.3,11.13-3.45,16.14,1.29,3.74,3.55,3.91,8.2,3.47,13.11H140.3a5.28,5.28,0,0,0,3.07,5.55c3.74,1.92,7.51,1.44,11.29.15.89-.3,1.78-.63,3-1.08,0,2,0,3.76,0,5.55,0,.2-.36.48-.6.57-5,1.75-10,2.35-15,.5-5.93-2.17-9-7.89-8.25-14.81a6.13,6.13,0,0,0-.06-2.25c-.34,1-.7,2.08-1,3.14-2.38,8.32-4.55,16.71-7.19,24.94-2,6.29-5.47,11.62-11.35,14.72a20.71,20.71,0,0,1-10.75,2.56,11.94,11.94,0,0,1-2.79-.44c-3.46-1-5.22-3.61-4.6-6.74a6.72,6.72,0,0,1,7.38-5.54c2.74.46,4.8,2.71,4.37,5.36-.23,1.44-1.32,2.73-2.06,4.15a1.63,1.63,0,0,0,.54.13c5.49.3,9.43-2.63,12.66-6.92,2.77-3.67,4-8.11,5.55-12.44a5.49,5.49,0,0,0-.74-5.39c-2.87-4.42-5.32-9.15-7.85-13.61-.87,3.23-1.77,6.74-2.76,10.22-1.17,4.11-1.21,4-5.25,4.17-1.49.07-2-.47-2.48-1.88-3.35-11.18-6.76-22.35-10.15-33.52C95.14,91.62,95.09,91.21,95,90.7Zm29.33,1.77a25.88,25.88,0,0,0-2.71,3.71c-1.44,3-2.72,6-3.95,9.1a3.09,3.09,0,0,0,0,2.18c2.51,5.34,5.11,10.63,7.7,15.93a10.34,10.34,0,0,0,.85,1.26,18,18,0,0,0,1.38-9C126.55,108.11,125.46,100.55,124.31,92.47Zm-1.58-12.15c-.56.45-.9.74-1.25,1-6.49,5.08-11.49,11.32-14,19.57a9.26,9.26,0,0,0-.21,6c1,3.13,1.77,6.37,2.72,9.87.17-.53.26-.75.31-1,1.06-4.9,2.16-9.8,3.16-14.71,1.32-6.46,4.28-11.56,10.39-14.22C123.45,84.78,123.11,82.68,122.73,80.32Zm.44-11.93a32.47,32.47,0,0,0,6.7-9,36.54,36.54,0,0,0,2.75-7.87c.54-2.4-.62-4.76-2-5.3s-3.54.43-4.93,2.45c-2.74,4-3.13,8.62-3.12,13.31C122.56,64,122.93,66,123.17,68.39Zm3.2,23.84c.83,7,1.63,13.75,2.43,20.52.82-1.84,1.31-3.71,2-5.46,1.29-3.05,2.75-6,4.12-9,.92-2,.53-3.5-1.29-4.68C131.51,92.15,129.1,92.23,126.37,92.23ZM153.65,110a6.23,6.23,0,0,0-6.79-6.13,6.38,6.38,0,0,0-6.17,6.13Z"/><path class="cls-1" d="M9,127.29H2V91c3.14,0,6.35,0,9.56,0,.35,0,.81.65,1,1.1,3.15,7.86,6.26,15.72,9.52,23.92.31-.73.56-1.24.76-1.77,2.83-7.15,5.66-14.3,8.44-21.47.5-1.28,1.11-1.84,2.51-1.75,2.56.16,5.13,0,7.82,0v36.27h-7V103.62l-.47-.11c-.86,2-1.75,4-2.56,6-2.23,5.6-4.41,11.21-6.63,16.81-.13.34-.43.84-.69.86a22.15,22.15,0,0,1-4.15.07c-.38,0-.8-.83-1-1.36q-4.79-11.23-9.52-22.51c-.1-.22-.23-.43-.57-1.06Z"/><path class="cls-1" d="M168.58,126.45h-5.45V88.65h6.32v12.17a1.46,1.46,0,0,0,.51-.16,12.47,12.47,0,0,1,17,2.51c5.54,7.39,3.06,20.08-4.82,23.6-4.88,2.18-9.51,1.22-13.58-2.84Zm.78-13.24a34.63,34.63,0,0,0,.94,4.55,6.4,6.4,0,0,0,5.87,4.57,6.05,6.05,0,0,0,6.29-3.54,13.49,13.49,0,0,0,1-8.56c-.58-3.69-2.55-5.84-5.6-6.14-3.86-.37-6.65,1.39-7.77,5A35,35,0,0,0,169.36,113.21Z"/><path class="cls-1" d="M45.93,100.44h6.63v2c0,4.88-.06,9.75,0,14.62.11,4.67,3.31,7,7.53,5.68a5.18,5.18,0,0,0,3.63-4.87c.21-2.23.19-4.49.21-6.74,0-3.55,0-7.1,0-10.73h6.36v3.82c0,4.24,0,8.49,0,12.73,0,6.46-2.92,10.15-9,11a31.17,31.17,0,0,1-8.41,0c-4.23-.58-6.79-3.62-6.95-8.11-.21-6.23-.13-12.47-.16-18.7A4.1,4.1,0,0,1,45.93,100.44Z"/><path class="cls-1" d="M74.32,120.54a78.74,78.74,0,0,0,7.76,2,12.67,12.67,0,0,0,4.67-.48,2.32,2.32,0,0,0,1.91-2.47,2.35,2.35,0,0,0-2-2.22c-1.79-.43-3.59-.76-5.39-1.16a23.25,23.25,0,0,1-2.44-.68c-3.74-1.32-5.69-4-5.7-7.69a8.06,8.06,0,0,1,5.71-7.73c4.55-1.59,9-.76,13.45.58a1.16,1.16,0,0,1,.62.88c.06,1.72,0,3.44,0,5.39-.64-.25-1.14-.42-1.63-.62a16,16,0,0,0-8.26-1.5,6.62,6.62,0,0,0-3.21,1.39,2.07,2.07,0,0,0,.39,3.6,10.65,10.65,0,0,0,3.24,1c2,.38,4.14.46,6.16.94,2.89.68,4.44,2.81,4.65,5.93.32,4.76-2.11,8.28-6.56,9.21a23.86,23.86,0,0,1-11.91-.7,1.82,1.82,0,0,1-1.5-2.12C74.37,122.82,74.32,121.53,74.32,120.54Z"/></svg>