<svg id="Layer_1" data-name="Layer 1" xmlns="http://www.w3.org/2000/svg" viewBox="0 0 250 250"><defs><style>.cls-1{fill:#55229d;}.cls-2{fill:#fff;}</style></defs><title>Logo_Artboard 3</title><circle class="cls-1" cx="125" cy="125" r="125"/><path class="cls-2" d="M70,214.37c34.33-.34,61.55-6.93,79.23-22.15,4.94-4.25,8.63-8.88,12.93-13.32.7-.73.39-1.24-.58-1.86q-20.17-12.87-40.25-25.78c-.18-.12-.4-.22-.79-.43-1.58,2-3.08,3.91-4.61,5.82-4.66,5.8-9.28,11.62-14,17.4a9.54,9.54,0,0,1-3.37,2.36,11.86,11.86,0,0,1-4.1.67c-8.29.06-16.59,0-24.89,0-1.24,0-2-.1-2.56-.78Q42.7,147.67,18.38,119s0-.07.05-.24h2.11c10.49,0,21,0,31.46,0,1.67,0,2.64.21,3.22,1a31.86,31.86,0,0,0,2.14,2.47c.36-.36.65-.59.86-.85,6.61-8.08,18-14.14,31.21-19.47,15.3-6.19,32-11.29,48.86-16.22,4.05-1.19,4-1.16,3.17-3.56a44.8,44.8,0,0,1-2.29-23.74c1.27-6.89,4.46-13.52,12.38-19.31,5.15-3.77,11.81-6.5,20.72-7.51,10.3-1.16,19.53.1,27.18,3.79,10.3,5,16.4,11.22,17.74,18.37,2.33,12.49-6.44,23.07-23.18,32-8.82,4.7-19.32,8.36-29.95,11.89-2.23.74-2.83,1.37-2.13,2.74,2,3.94,3.58,7.94,5.37,12,2.31-.11,4.6-.24,6.89-.31,13.92-.4,27.54.28,40.47,3.15,5.31,1.19,10.15,2.74,13.57,5.22,3,2.19,4.38,4.64,2.61,7.21a8.92,8.92,0,0,1-4.34,3.25c-14.41,4.94-24.24,11.76-30.95,19.78-7.23,8.62-14,17.35-20.78,26.07-4.92,6.34-9.86,12.66-17,18.46C143.88,206.51,124,213.45,99,216.71a232.34,232.34,0,0,1-34.43,2.07,129.42,129.42,0,0,1-21.73-1.85,23,23,0,0,1-8.73-3.16c-3.54-2.48-3.41-6,.53-8.76,5.5-3.85,13.29-5.55,22.35-5.85a40.72,40.72,0,0,1,15.6,2.14c8.32,3.12,8.5,8.62.42,11.92C72.11,213.57,71.21,213.89,70,214.37ZM91.41,160c1.39-1.9,2.51-3.56,3.8-5.19,6-7.63,11.59-15.37,18.23-22.86,7.88-8.89,21.25-14.92,39.44-18l4.13-.69c-2.12-4.12-4.18-8.12-6.3-12.22-3.49.92-6.78,1.77-10,2.65-14.55,4-28.57,8.31-40.41,14.28-10.86,5.47-19,11.74-22.22,19.48-1.22,2.9-1.48,5.66,1.49,8.4a58.51,58.51,0,0,1,5.08,6C86.81,154.5,89,157.13,91.41,160Zm68.48-38.74c-.81.14-1.31.21-1.79.31-16.77,3.7-26.43,10.53-31.76,19.18-1.8,2.92-.73,5.65,3.17,8.13,8.65,5.5,17.09,11.08,25.64,16.63,3.57,2.32,7.2,4.61,11.29,7.23.92-2.27,2-4.19,2.44-6.15,1.34-6.29.26-12.58-1-18.83-1.12-5.51-2.76-11-4.38-16.48C162.5,128,161.12,124.66,159.89,121.28Zm-7.11-39.83c.48-.11.75-.16,1-.23,12-3.83,23.11-8.26,32.43-13.76,6.11-3.6,11.51-7.43,13.73-12.19,1.07-2.27,1.31-4.5-1.34-6.57-4-3.15-12-4.49-19.4-2.86-17,3.75-25.51,10.78-27.95,19.91C149.86,71,151.09,76.14,152.78,81.45Zm26,73.09c3.89-4.08,7.86-8.65,12.52-13,4.93-4.63,10.51-9.08,15.8-13.61,1.88-1.6,1.67-2.65-1.08-3.88a33.08,33.08,0,0,0-4.87-1.65,82.86,82.86,0,0,0-18.05-2.28c-4.25-.14-8.53,0-12.3,0C173.55,131.78,176.23,143.36,178.82,154.54Z"/></svg>