<svg id="Layer_1" data-name="Layer 1" xmlns="http://www.w3.org/2000/svg" viewBox="0 0 192 192"><defs><style>.cls-1{fill:#593d9e;}.cls-2{fill:#b58daa;}</style></defs><title>Logo_Artboard 2</title><rect class="cls-1" y="-0.2" width="192" height="192.41"/><path class="cls-2" d="M95,87.88h7.5l.63,2.58c2.83-9.69,9.36-15.85,16.21-21.71a2.25,2.25,0,0,0,.89-2.29c-.68-5.93-1.44-11.88-.39-17.84.43-2.47,1.23-4.87,1.88-7.3a3.92,3.92,0,0,1,.43-1c2.52-4.08,5.89-6,9.22-.31s4,12.11,2.71,18.73a28.1,28.1,0,0,1-9.61,16.77,2,2,0,0,0-.72,2.3c.47,2,.81,4,1.19,5.91a48.6,48.6,0,0,1,5.48.45,19,19,0,0,1,4.9,1.63c3.28,1.66,4.68,4.93,4,8.71-.17.89-.4,1.77-.63,2.8,5.48-3.18,10.76-3.32,15.6,1.26,3.61,3.42,3.78,7.92,3.35,12.67h-18.8a5.11,5.11,0,0,0,3,5.36c3.62,1.85,7.26,1.39,10.91.15l2.94-1c0,1.89,0,3.62,0,5.36,0,.19-.34.46-.58.54-4.79,1.7-9.65,2.27-14.52.49-5.73-2.09-8.75-7.63-8-14.31a5.76,5.76,0,0,0-.06-2.18c-.32,1-.67,2-1,3-2.3,8-4.4,16.15-7,24.1-1.94,6.08-5.28,11.23-11,14.23a20.11,20.11,0,0,1-10.4,2.47,11.6,11.6,0,0,1-2.69-.42c-3.35-.95-5.06-3.49-4.46-6.52a6.5,6.5,0,0,1,7.14-5.35c2.65.44,4.64,2.62,4.23,5.17-.23,1.4-1.28,2.64-2,4a1.79,1.79,0,0,0,.52.12c5.31.3,9.12-2.54,12.24-6.68,2.68-3.55,3.92-7.84,5.36-12a5.29,5.29,0,0,0-.71-5.21c-2.78-4.27-5.14-8.84-7.58-13.15-.85,3.12-1.72,6.51-2.68,9.87-1.13,4-1.16,3.87-5.06,4-1.45.06-2-.46-2.4-1.82-3.24-10.81-6.54-21.6-9.82-32.39C95.17,88.77,95.12,88.37,95,87.88Zm28.35,1.71a25.69,25.69,0,0,0-2.62,3.58c-1.39,2.87-2.62,5.83-3.82,8.8a3,3,0,0,0,0,2.1c2.43,5.16,4.94,10.28,7.44,15.4a10.86,10.86,0,0,0,.82,1.22,17.22,17.22,0,0,0,1.34-8.69C125.52,104.7,124.47,97.4,123.36,89.59Zm-1.53-11.75c-.53.44-.87.72-1.21,1-6.27,4.91-11.1,10.94-13.57,18.92a8.93,8.93,0,0,0-.21,5.84c1,3,1.72,6.15,2.63,9.53.16-.51.25-.72.3-1,1-4.73,2.09-9.46,3.06-14.21,1.27-6.25,4.13-11.17,10-13.75C122.53,82.15,122.2,80.13,121.83,77.84Zm.43-11.52a31.76,31.76,0,0,0,6.48-8.7A35.92,35.92,0,0,0,131.39,50c.53-2.32-.6-4.6-1.94-5.12s-3.42.42-4.76,2.37c-2.66,3.84-3,8.33-3,12.86C121.67,62.06,122,64,122.26,66.32Zm3.1,23c.79,6.74,1.56,13.28,2.34,19.83.8-1.78,1.27-3.59,2-5.28,1.25-3,2.66-5.82,4-8.73.89-2,.51-3.39-1.24-4.53C130.32,89.28,128,89.35,125.36,89.36Zm26.36,17.18a6,6,0,0,0-6.57-5.92,6.16,6.16,0,0,0-6,5.92Z"/><path class="cls-2" d="M11.94,123.24H5.18V88.16c3,0,6.14,0,9.24,0,.33,0,.79.63,1,1.07,3,7.59,6.06,15.2,9.2,23.12.31-.71.54-1.2.74-1.71,2.73-6.92,5.47-13.82,8.16-20.76a2.15,2.15,0,0,1,2.43-1.69c2.47.16,5,.05,7.56.05v35.05H36.7v-23l-.46-.1c-.82,1.93-1.69,3.85-2.47,5.8-2.15,5.41-4.26,10.83-6.41,16.24-.13.33-.42.81-.66.83a21.62,21.62,0,0,1-4,.08c-.37,0-.77-.81-1-1.32-3.09-7.24-6.14-14.5-9.21-21.75-.09-.22-.22-.42-.55-1Z"/><path class="cls-2" d="M166.15,122.43h-5.27V85.89H167V97.66a1.57,1.57,0,0,0,.49-.15,12,12,0,0,1,16.45,2.42c5.35,7.14,3,19.41-4.66,22.81-4.71,2.1-9.19,1.18-13.12-2.75Zm.75-12.8a34,34,0,0,0,.91,4.4,6.17,6.17,0,0,0,5.67,4.41,5.85,5.85,0,0,0,6.09-3.41,13.11,13.11,0,0,0,1-8.28c-.56-3.57-2.47-5.64-5.41-5.93-3.74-.36-6.43,1.34-7.51,4.88A32.65,32.65,0,0,0,166.9,109.63Z"/><path class="cls-2" d="M47.6,97.3H54v1.89c0,4.71,0,9.42.05,14.13.1,4.51,3.2,6.78,7.27,5.48a5,5,0,0,0,3.51-4.7c.2-2.16.19-4.34.21-6.52,0-3.43,0-6.86,0-10.37H71.2v3.7c0,4.1,0,8.2,0,12.3,0,6.24-2.82,9.81-8.67,10.62a30,30,0,0,1-8.14,0c-4.08-.56-6.56-3.5-6.71-7.84-.21-6-.13-12.05-.16-18.07A4.36,4.36,0,0,1,47.6,97.3Z"/><path class="cls-2" d="M75,116.72c2.45.65,4.94,1.51,7.5,1.93a12.05,12.05,0,0,0,4.52-.46,2.25,2.25,0,0,0,1.84-2.39A2.29,2.29,0,0,0,87,113.65c-1.72-.42-3.47-.73-5.2-1.12a21.1,21.1,0,0,1-2.36-.65c-3.62-1.28-5.5-3.83-5.51-7.43A7.79,7.79,0,0,1,79.41,97c4.39-1.55,8.71-.75,13,.55a1.14,1.14,0,0,1,.59.86c.06,1.65,0,3.31,0,5.2-.62-.24-1.1-.41-1.57-.6a15.4,15.4,0,0,0-8-1.44,6.44,6.44,0,0,0-3.1,1.34,2,2,0,0,0,.38,3.48,10.59,10.59,0,0,0,3.13,1c2,.36,4,.44,6,.9,2.78.66,4.28,2.71,4.48,5.73.31,4.6-2,8-6.33,8.9a23,23,0,0,1-11.52-.67,1.77,1.77,0,0,1-1.44-2C75.1,118.92,75,117.67,75,116.72Z"/></svg>